# xmcd CD database file
#
# Track frame offsets:
#	150
#	21555
#	56820
#	78660
#	98760
#	125198
#	141520
#	172788
#	208320
#	232150
#
# Disc length: 3749 seconds
#
# Revision: 0
# Processed by: cddbd v1.5.1PL0 Copyright (c) Steve Scherf et al.
# Submitted via: CDex 1.51
#
DISCID=9b0ea30a
DTITLE=Metropole Orkest - Metropole Orkest
DYEAR=1900
DGENRE=Jazz
TTITLE0=Festival de Ritmo
TTITLE1=Greenhouse
TTITLE2=Never Let Me Go
TTITLE3=There's a Boat Dat's Leavin' Soon For New York 
TTITLE4=Riverdance
TTITLE5=Deep Song
TTITLE6=The Moon of Manakoorah
TTITLE7=Esperanca
TTITLE8=Nightclub 1960
TTITLE9=Slash
EXTD=
EXTT0=
EXTT1=
EXTT2=
EXTT3=
EXTT4=
EXTT5=
EXTT6=
EXTT7=
EXTT8=
EXTT9=
PLAYORDER=
